<?xml version="1.0" encoding="UTF-8"?>
<svg version="1.1" xmlns="http://www.w3.org/2000/svg" viewBox="0 0 665 375">
<path d="M0 0 C0.721875 0.226875 1.44375 0.45375 2.1875 0.6875 C2.8125 3.75 2.8125 3.75 2.1875 7.6875 C-0.17569996 9.78522077 -2.62993128 11.37798154 -5.33203125 13.01171875 C-7.81600789 14.6898699 -9.07504823 16.29263405 -10.8125 18.6875 C-11.4725 18.6875 -12.1325 18.6875 -12.8125 18.6875 C-13.06 19.3475 -13.3075 20.0075 -13.5625 20.6875 C-14.8125 23.6875 -14.8125 23.6875 -16.6875 27 C-20.92361453 35.45618318 -24.25543784 46.14701452 -21.58203125 55.44921875 C-21.32808594 56.18785156 -21.07414062 56.92648438 -20.8125 57.6875 C-20.58949219 58.47769531 -20.36648438 59.26789063 -20.13671875 60.08203125 C-17.37214726 69.39508491 -11.85623671 76.23885058 -3.8125 81.6875 C4.63385839 85.12284099 13.11883696 86.3662357 22.1875 85.6875 C21.79396207 91.19703102 19.75390637 93.59918051 16.1875 97.6875 C15.48927383 99.34119357 14.81251395 101.00477014 14.1875 102.6875 C9.05640759 105.2530462 0.55328467 103.97926298 -4.8125 102.6875 C-6.94509842 101.52277317 -8.94606475 100.24422954 -10.9609375 98.88671875 C-13.13865251 97.47625776 -15.40049156 96.62550328 -17.8125 95.6875 C-20.125 94.1875 -20.125 94.1875 -21.8125 92.6875 C-21.8125 92.0275 -21.8125 91.3675 -21.8125 90.6875 C-22.41191406 90.42195313 -23.01132812 90.15640625 -23.62890625 89.8828125 C-30.73919828 85.99059539 -36.3791351 76.21934374 -38.8125 68.6875 C-39.2131953 65.83925486 -39.37130941 62.99708539 -39.5 60.125 C-39.53834961 59.32578125 -39.57669922 58.5265625 -39.61621094 57.703125 C-40.01648504 47.85875997 -39.83600724 37.8703371 -35.8125 28.6875 C-35.1525 28.3575 -34.4925 28.0275 -33.8125 27.6875 C-33.15936542 26.44112528 -32.56237458 25.16487191 -32 23.875 C-30.17670231 20.07983962 -28.28479521 18.14351369 -24.8125 15.6875 C-22.27056739 13.2091157 -19.81950993 10.69524782 -17.4375 8.0625 C-14.41388162 5.32684528 -11.59004064 4.17153382 -7.8125 2.6875 C-6.513125 1.82125 -6.513125 1.82125 -5.1875 0.9375 C-2.8125 -0.3125 -2.8125 -0.3125 0 0 Z " fill="#F1C679" transform="translate(320.8125,136.3125)"/>
<path d="M0 0 C-0.25238629 4.71121079 -0.62449546 7.81366628 -3.375 11.6875 C-6.97897766 16.96364021 -7.77763402 22.82705182 -9 29 C-9.3945368 30.47951302 -9.79021641 31.95872219 -10.1875 33.4375 C-12.68168757 45.14099554 -10.51127432 55.81735461 -7 67 C-6.72671875 67.93714844 -6.4534375 68.87429687 -6.171875 69.83984375 C-5.01022511 74.07997347 -5.01022511 74.07997347 -2.41015625 77.484375 C-1 79 -1 79 -1 83 C-0.401875 83.226875 0.19625 83.45375 0.8125 83.6875 C3 85 3 85 4.25 87.265625 C6.38765181 90.60570596 9.04913561 92.72958037 12.1875 95.0625 C13.06414307 95.72209717 13.06414307 95.72209717 13.95849609 96.39501953 C18.11454813 99.46748424 22.18854118 102.06976701 27 104 C27.79277344 104.35707031 28.58554687 104.71414062 29.40234375 105.08203125 C36.20669092 107.90968213 42.62551269 108.56537355 49.91015625 108.82421875 C53 109 53 109 55 110 C55 110.99 55 111.98 55 113 C53.80375 113.474375 52.6075 113.94875 51.375 114.4375 C50.70210938 114.70433594 50.02921875 114.97117187 49.3359375 115.24609375 C33.98352582 120.20096909 18.85358598 116.00375736 5 109 C-0.94592813 105.29467162 -5.72839794 101.56965355 -10 96 C-10.61875 95.4225 -11.2375 94.845 -11.875 94.25 C-17.85870957 87.91430751 -20.85534696 81.34984916 -23 73 C-23.37125 71.948125 -23.7425 70.89625 -24.125 69.8125 C-28.90628891 54.44407135 -26.09695811 36.59511547 -20 22 C-18.4946074 19.45848842 -16.85004739 17.32441851 -15 15 C-14.1646875 13.5459375 -14.1646875 13.5459375 -13.3125 12.0625 C-12.879375 11.381875 -12.44625 10.70125 -12 10 C-11.34 10 -10.68 10 -10 10 C-9.690625 8.9171875 -9.690625 8.9171875 -9.375 7.8125 C-7.60162624 4.18514459 -4.38671046 0 0 0 Z " fill="#2D697F" transform="translate(279,143)"/>
<path d="M0 0 C10.44524935 5.88071066 17.41615652 13.69753627 21.20703125 25.0546875 C24.29030486 36.50684664 23.09242327 48.20201225 17.8125 58.875 C17.214375 59.90625 16.61625 60.9375 16 62 C15.34 62 14.68 62 14 62 C13.7628125 62.74636719 13.525625 63.49273437 13.28125 64.26171875 C11.79593729 67.43612184 10.29135721 68.73257637 7.5 70.8125 C6.30890625 71.71935547 6.30890625 71.71935547 5.09375 72.64453125 C3 74 3 74 1 74 C1 74.66 1 75.32 1 76 C-1.87117516 77.15558273 -4.74753929 78.29766867 -7.625 79.4375 C-8.43324219 79.76298828 -9.24148438 80.08847656 -10.07421875 80.42382812 C-16.2384783 82.85445079 -21.70504062 84.15263459 -28.375 84.0625 C-29.24898438 84.05347656 -30.12296875 84.04445313 -31.0234375 84.03515625 C-31.67570312 84.02355469 -32.32796875 84.01195312 -33 84 C-33.33 82.68 -33.66 81.36 -34 80 C-30.90374118 77.93582745 -29.0904993 77.51642684 -25.5 76.8125 C-14.04774445 74.05675773 -4.22822397 66.71753565 1.9375 56.6875 C4.23985303 51.75605736 4.46160655 47.10399387 4.5 41.75 C4.50954712 40.59697388 4.50954712 40.59697388 4.51928711 39.4206543 C4.3772243 33.0992026 2.76764377 28.94009683 -1.5625 24.1875 C-3.78913321 21.99519949 -3.78913321 21.99519949 -6 21 C-6 20.34 -6 19.68 -6 19 C-13.29677002 17.23160633 -20.49617662 16.61207527 -27.97265625 16.24609375 C-31 16 -31 16 -32 15 C-32.7153862 10.13537385 -30.53617341 6.93842629 -28 3 C-27.319375 1.88625 -26.63875 0.7725 -25.9375 -0.375 C-20.42547523 -7.84290452 -7.30330188 -3.09842537 0 0 Z " fill="#26664A" transform="translate(361,188)"/>
<path d="M0 0 C19.84239346 0.57054805 34.20210844 7.66023415 47.6015625 21.796875 C58.12978424 34.17837922 60.71215135 47.71317605 60 63.625 C59.97019043 64.36177979 59.94038086 65.09855957 59.90966797 65.85766602 C59.56711578 71.15170858 58.23143075 75.3550479 56.1875 80.25 C55.795625 81.24 55.40375 82.23 55 83.25 C54.731875 83.91 54.46375 84.57 54.1875 85.25 C52.7025 84.755 52.7025 84.755 51.1875 84.25 C51.18862793 83.69763672 51.18975586 83.14527344 51.19091797 82.57617188 C51.12335888 68.39463775 50.15019244 54.86929889 41.1875 43.25 C41.1875 42.59 41.1875 41.93 41.1875 41.25 C40.5275 41.25 39.8675 41.25 39.1875 41.25 C38.5275 40.404375 37.8675 39.55875 37.1875 38.6875 C28.98762786 28.5512149 15.83663241 23.30318408 3.234375 21.51953125 C-1.78635965 21.07538934 -6.77816158 21.08932962 -11.8125 21.25 C-13.03057951 17.71689645 -12.83911865 16.31795763 -11.44921875 12.76953125 C-10.81379749 11.52643061 -10.16356791 10.29080656 -9.5 9.0625 C-9.17837891 8.43408203 -8.85675781 7.80566406 -8.52539062 7.15820312 C-4.96663304 0.32568085 -4.96663304 0.32568085 0 0 Z " fill="#488F58" transform="translate(341.8125,146.75)"/>
<path d="M0 0 C4.15289097 3.67371124 7.23378258 8.22366459 10 13 C10 13.66 10 14.32 10 15 C10.85851562 15.11859375 11.71703125 15.2371875 12.6015625 15.359375 C29.07520396 18.46475109 46.42686812 30.09814762 56 44 C61.10337005 51.8552879 61.10337005 51.8552879 63 56 C62.67 56.99 62.34 57.98 62 59 C58.02605683 58.4789719 56.60194642 56.72648446 54.125 53.6875 C50.98066969 50.03063233 48.21227649 47.43015951 44 45 C43.21753906 44.46761719 42.43507813 43.93523437 41.62890625 43.38671875 C29.35370764 35.4359313 15.06530439 32.8896913 0.7109375 31.359375 C-2 31 -2 31 -3 30 C-3.28188316 25.36045946 -3.2318207 20.7095829 -3.25 16.0625 C-3.270625 14.74830078 -3.29125 13.43410156 -3.3125 12.08007812 C-3.31765625 10.82775391 -3.3228125 9.57542969 -3.328125 8.28515625 C-3.34214355 6.55084351 -3.34214355 6.55084351 -3.35644531 4.78149414 C-3.23881836 3.86360107 -3.12119141 2.94570801 -3 2 C-2.01 1.34 -1.02 0.68 0 0 Z " fill="#69B864" transform="translate(338,101)"/>
<path d="M0 0 C1.84841097 1.67237183 3.0884086 3.1536196 4.33984375 5.328125 C8.94806283 12.744647 15.08460998 17.17839276 23.4375 19.5625 C29.68908105 20.96656444 35.61454471 21.47791349 42 21 C41.60646207 26.50953102 39.56640637 28.91168051 36 33 C35.30177383 34.65369357 34.62501395 36.31727014 34 38 C28.86890759 40.5655462 20.36578467 39.29176298 15 38 C12.86740158 36.83527317 10.86643525 35.55672954 8.8515625 34.19921875 C6.67384749 32.78875776 4.41200844 31.93800328 2 31 C-0.3125 29.5 -0.3125 29.5 -2 28 C-2 27.34 -2 26.68 -2 26 C-2.59554688 25.73832031 -3.19109375 25.47664063 -3.8046875 25.20703125 C-8.80154982 22.4596461 -12.36228672 17.40445384 -14 12 C-12.02 12.66 -10.04 13.32 -8 14 C-7.690625 13.05125 -7.38125 12.1025 -7.0625 11.125 C-6 8 -6 8 -5 6 C-4.34 6 -3.68 6 -3 6 C-3 5.34 -3 4.68 -3 4 C-2.01 4.33 -1.02 4.66 0 5 C0.6875 7.0625 0.6875 7.0625 1 9 C1.66 8.67 2.32 8.34 3 8 C2.505 7.4225 2.01 6.845 1.5 6.25 C0 4 0 4 0 0 Z " fill="#F0BC69" transform="translate(301,201)"/>
<path d="M0 0 C2 1.25 2 1.25 4 3 C4 4.32 4 5.64 4 7 C4.598125 7.226875 5.19625 7.45375 5.8125 7.6875 C8 9 8 9 9.25 11.265625 C11.38765181 14.60570596 14.04913561 16.72958037 17.1875 19.0625 C17.77192871 19.50223145 18.35635742 19.94196289 18.95849609 20.39501953 C23.11454813 23.46748424 27.18854118 26.06976701 32 28 C32.79277344 28.35707031 33.58554687 28.71414062 34.40234375 29.08203125 C41.20669092 31.90968213 47.62551269 32.56537355 54.91015625 32.82421875 C58 33 58 33 60 34 C60 34.99 60 35.98 60 37 C58.80375 37.474375 57.6075 37.94875 56.375 38.4375 C55.70210938 38.70433594 55.02921875 38.97117187 54.3359375 39.24609375 C38.99820799 44.19623053 23.83691031 40.01805639 10 33 C-0.25778547 26.48442907 -0.25778547 26.48442907 -2 23 C1.96 22.505 1.96 22.505 6 22 C6.495 17.545 6.495 17.545 7 13 C5.02 12.34 3.04 11.68 1 11 C1.33 8.69 1.66 6.38 2 4 C1.34 4 0.68 4 0 4 C0 2.68 0 1.36 0 0 Z " fill="#23566E" transform="translate(274,219)"/>
<path d="M0 0 C6.05541178 6.05541178 7.66844972 16.36311833 8.0078125 24.59765625 C7.98652545 33.86816835 7.93844958 42.49294891 4 51 C3.608125 51.99 3.21625 52.98 2.8125 54 C2.544375 54.66 2.27625 55.32 2 56 C1.01 55.67 0.02 55.34 -1 55 C-0.99887207 54.44763672 -0.99774414 53.89527344 -0.99658203 53.32617188 C-1.05849627 40.3295657 -1.52260301 26.58180477 -9.6953125 15.75390625 C-11 14 -11 14 -11 11 C-9.35 11 -7.7 11 -6 11 C-5.67 11.66 -5.34 12.32 -5 13 C-2.37418862 14.57548683 -1.12900213 15 2 15 C1.855625 14.41992188 1.71125 13.83984375 1.5625 13.2421875 C0.49110572 8.73340325 -0.23945936 4.66945753 0 0 Z " fill="#3E895A" transform="translate(394,176)"/>
<path d="M0 0 C0.721875 0.226875 1.44375 0.45375 2.1875 0.6875 C2.8125 3.75 2.8125 3.75 2.1875 7.6875 C-0.17569996 9.78522077 -2.62993128 11.37798154 -5.33203125 13.01171875 C-7.81600789 14.6898699 -9.07504823 16.29263405 -10.8125 18.6875 C-11.4725 18.6875 -12.1325 18.6875 -12.8125 18.6875 C-13.06 19.3475 -13.3075 20.0075 -13.5625 20.6875 C-15.13067045 24.45110907 -16.95755046 28.0586424 -18.8125 31.6875 C-19.1425 30.6975 -19.4725 29.7075 -19.8125 28.6875 C-20.8025 28.3575 -21.7925 28.0275 -22.8125 27.6875 C-22.8125 27.0275 -22.8125 26.3675 -22.8125 25.6875 C-21.4925 26.0175 -20.1725 26.3475 -18.8125 26.6875 C-19.3075 24.2125 -19.3075 24.2125 -19.8125 21.6875 C-21.7925 21.3575 -23.7725 21.0275 -25.8125 20.6875 C-25.8125 21.3475 -25.8125 22.0075 -25.8125 22.6875 C-27.1325 23.0175 -28.4525 23.3475 -29.8125 23.6875 C-29.8125 24.3475 -29.8125 25.0075 -29.8125 25.6875 C-30.4725 25.6875 -31.1325 25.6875 -31.8125 25.6875 C-32.1425 27.0075 -32.4725 28.3275 -32.8125 29.6875 C-33.4725 29.6875 -34.1325 29.6875 -34.8125 29.6875 C-35.1425 31.0075 -35.4725 32.3275 -35.8125 33.6875 C-36.1425 33.0275 -36.4725 32.3675 -36.8125 31.6875 C-36.3175 30.2025 -36.3175 30.2025 -35.8125 28.6875 C-35.1525 28.3575 -34.4925 28.0275 -33.8125 27.6875 C-33.15936542 26.44112528 -32.56237458 25.16487191 -32 23.875 C-30.17670231 20.07983962 -28.28479521 18.14351369 -24.8125 15.6875 C-22.27056739 13.2091157 -19.81950993 10.69524782 -17.4375 8.0625 C-14.41388162 5.32684528 -11.59004064 4.17153382 -7.8125 2.6875 C-6.513125 1.82125 -6.513125 1.82125 -5.1875 0.9375 C-2.8125 -0.3125 -2.8125 -0.3125 0 0 Z " fill="#E1BA76" transform="translate(320.8125,136.3125)"/>
<path d="M0 0 C5.1192121 3.58217819 9.15143692 7.08239162 13 12 C13.62777344 12.59425781 14.25554687 13.18851563 14.90234375 13.80078125 C17.34439006 16.36106444 19.01883051 19.01514994 20.8125 22.0625 C21.43769531 23.10535156 22.06289063 24.14820313 22.70703125 25.22265625 C24 28 24 28 23 31 C19.02605683 30.4789719 17.60194642 28.72648446 15.125 25.6875 C11.98066969 22.03063233 9.21227649 19.43015951 5 17 C4.04351562 16.4328125 3.08703125 15.865625 2.1015625 15.28125 C-4.34929121 11.45714856 -4.34929121 11.45714856 -11 8 C-4.92671312 7.49389276 -1.22771463 8.95842058 4 12 C4 11.34 4 10.68 4 10 C4.66 10 5.32 10 6 10 C5.67 9.01 5.34 8.02 5 7 C4.34 6.71125 3.68 6.4225 3 6.125 C1 5 1 5 0.25 2.375 C0.1675 1.59125 0.085 0.8075 0 0 Z " fill="#57A75E" transform="translate(377,129)"/>
<path d="M0 0 C1.39698636 0.28609307 2.7925433 0.57916905 4.1875 0.875 C5.35345703 1.11863281 5.35345703 1.11863281 6.54296875 1.3671875 C9 2 9 2 11.3203125 3.03515625 C15.38640308 4.49918595 19.44947296 4.46222615 23.73632812 4.65429688 C28.82506229 4.91253115 28.82506229 4.91253115 31 6 C31 6.99 31 7.98 31 9 C29.80375 9.474375 28.6075 9.94875 27.375 10.4375 C26.36566406 10.83775391 26.36566406 10.83775391 25.3359375 11.24609375 C14.00977308 14.90152809 0.79666767 13.87591443 -10 9 C-6.94736336 8.01879536 -5.05263664 8.01879536 -2 9 C-2 9.66 -2 10.32 -2 11 C1.465 10.505 1.465 10.505 5 10 C5.33 7.69 5.66 5.38 6 3 C4.68 3 3.36 3 2 3 C2 2.34 2 1.68 2 1 C1.34 0.67 0.68 0.34 0 0 Z " fill="#1A4357" transform="translate(303,247)"/>
<path d="M0 0 C-0.31563689 5.89188864 -1.46716324 9.0920853 -4.80078125 13.90625 C-6.5065855 16.88446198 -6.97133898 19.84500763 -7.4453125 23.21484375 C-7.71988281 24.09849609 -7.71988281 24.09849609 -8 25 C-8.99 25.33 -9.98 25.66 -11 26 C-11.73323796 28.01508358 -11.73323796 28.01508358 -12 30 C-12.99 30 -13.98 30 -15 30 C-14.979375 29.113125 -14.95875 28.22625 -14.9375 27.3125 C-14.8927425 24.09257221 -14.8927425 24.09257221 -15.5625 21.375 C-16.25660352 17.60700948 -15.31876329 15.60980803 -13.5625 12.25 C-12.7890625 11.13625 -12.7890625 11.13625 -12 10 C-11.34 10 -10.68 10 -10 10 C-9.79375 9.278125 -9.5875 8.55625 -9.375 7.8125 C-7.60162624 4.18514459 -4.38671046 0 0 0 Z " fill="#337282" transform="translate(279,143)"/>
<path d="M0 0 C0.33 0 0.66 0 1 0 C2.32768804 12.11260013 3.22722017 24.70920444 -2 36 C-2.391875 36.99 -2.78375 37.98 -3.1875 39 C-3.455625 39.66 -3.72375 40.32 -4 41 C-4.99 40.67 -5.98 40.34 -7 40 C-7.01401855 39.12432373 -7.01401855 39.12432373 -7.02832031 38.23095703 C-6.96567572 24.03764721 -6.96567572 24.03764721 -11.2578125 10.7421875 C-12 9 -12 9 -11 6 C-9.515 6.99 -9.515 6.99 -8 8 C-7.8125 11.625 -7.8125 11.625 -8 15 C-6.68 14.67 -5.36 14.34 -4 14 C-4.17402344 14.52078125 -4.34804688 15.0415625 -4.52734375 15.578125 C-5.14457418 18.74079331 -4.85094328 21.54507464 -4.5625 24.75 C-4.40974609 26.50570312 -4.40974609 26.50570312 -4.25390625 28.296875 C-4.17011719 29.18890625 -4.08632813 30.0809375 -4 31 C-3.34 31 -2.68 31 -2 31 C-1.01 15.655 -1.01 15.655 0 0 Z " fill="#346A52" transform="translate(400,191)"/>
<path d="M0 0 C1.0828125 0.3403125 1.0828125 0.3403125 2.1875 0.6875 C2.8125 3.75 2.8125 3.75 2.1875 7.6875 C-0.87887664 10.46501507 -4.308467 12.51040409 -7.8125 14.6875 C-8.4725 15.3475 -9.1325 16.0075 -9.8125 16.6875 C-10.8025 15.3675 -11.7925 14.0475 -12.8125 12.6875 C-9.8125 11.6875 -9.8125 11.6875 -5.8125 11.6875 C-6.1425 9.7075 -6.4725 7.7275 -6.8125 5.6875 C-9.26474694 5.79363836 -9.26474694 5.79363836 -11.8125 6.6875 C-13.18716625 9.16386012 -13.18716625 9.16386012 -13.8125 11.6875 C-15.1325 11.6875 -16.4525 11.6875 -17.8125 11.6875 C-17.875 9.4375 -17.875 9.4375 -16.8125 6.6875 C-14.64084242 5.40689367 -12.44342582 4.51633991 -10.09375 3.60546875 C-7.64544982 2.70811905 -7.64544982 2.70811905 -5.0625 0.875 C-2.8125 -0.3125 -2.8125 -0.3125 0 0 Z " fill="#EEC781" transform="translate(320.8125,136.3125)"/>
<path d="M0 0 C4.00075546 1.33358515 5.0777441 3.85916174 7.125 7.3125 C7.48464844 7.89451172 7.84429687 8.47652344 8.21484375 9.07617188 C9.97547631 11.98748002 11.4489278 14.6184206 12 18 C10.68 18.33 9.36 18.66 8 19 C7.484375 18.29875 6.96875 17.5975 6.4375 16.875 C4.00837395 14.00987697 1.46872177 11.7175667 -1.4140625 9.33203125 C-3 8 -3 8 -5 6 C-3.02 5.34 -1.04 4.68 1 4 C0.67 2.68 0.34 1.36 0 0 Z " fill="#428752" transform="translate(389,141)"/>
<path d="M0 0 C10.92 3.38 10.92 3.38 14 8 C12.68 8 11.36 8 10 8 C10 7.01 10 6.02 10 5 C9.67 5.66 9.34 6.32 9 7 C7.34178227 7.37309899 5.67422986 7.70700977 4 8 C3.67 8.33 3.34 8.66 3 9 C3.99 9.66 4.98 10.32 6 11 C6 11.99 6 12.98 6 14 C3.03 13.505 3.03 13.505 0 13 C0 13.66 0 14.32 0 15 C-2.31 14.67 -4.62 14.34 -7 14 C-7 13.67 -7 13.34 -7 13 C-4.36 12.67 -1.72 12.34 1 12 C1 11.01 1 10.02 1 9 C-0.65 9.33 -2.3 9.66 -4 10 C-4.33 9.01 -4.66 8.02 -5 7 C-4.175 6.21625 -3.35 5.4325 -2.5 4.625 C0.22988506 2.36278736 0.22988506 2.36278736 0 0 Z " fill="#68B261" transform="translate(362,121)"/>
<path d="M0 0 C0.33 0 0.66 0 1 0 C0.88512252 1.58409994 0.75765492 3.16728963 0.625 4.75 C0.55539062 5.63171875 0.48578125 6.5134375 0.4140625 7.421875 C0 10 0 10 -1 11.76757812 C-2.30599292 14.68310529 -2.32380334 17.10771814 -2.4140625 20.296875 C-2.45273438 21.50214844 -2.49140625 22.70742187 -2.53125 23.94921875 C-2.5621875 25.20347656 -2.593125 26.45773438 -2.625 27.75 C-2.66367188 29.01972656 -2.70234375 30.28945312 -2.7421875 31.59765625 C-2.83644222 34.7316257 -2.92205166 37.86558949 -3 41 C-2.34 41 -1.68 41 -1 41 C0.17076699 44.98060777 1.25749403 48.91621717 2 53 C1.01 53.495 1.01 53.495 0 54 C-0.6536261 52.14856606 -1.29751218 50.29369242 -1.9375 48.4375 C-2.29714844 47.40496094 -2.65679687 46.37242187 -3.02734375 45.30859375 C-7.41853942 30.37147434 -5.32281905 14.37161143 0 0 Z " fill="#18343E" transform="translate(258,168)"/>
<path d="M0 0 C2.0625 1.75 2.0625 1.75 4 4 C3.75 6.25 3.75 6.25 3 8 C2.01 8 1.02 8 0 8 C-0.33 15.26 -0.66 22.52 -1 30 C-1.66 30 -2.32 30 -3 30 C-3.07409401 26.04907941 -3.12857406 22.09842706 -3.16479492 18.14697266 C-3.18732251 16.14080626 -3.2254357 14.13483474 -3.26367188 12.12890625 C-3.27333984 10.87207031 -3.28300781 9.61523438 -3.29296875 8.3203125 C-3.3086792 7.15773926 -3.32438965 5.99516602 -3.34057617 4.79736328 C-3.22818604 3.8742334 -3.1157959 2.95110352 -3 2 C-2.01 1.34 -1.02 0.68 0 0 Z " fill="#4E794E" transform="translate(338,101)"/>
<path d="M0 0 C0.66 0.33 1.32 0.66 2 1 C-0.31 2.65 -2.62 4.3 -5 6 C-3.02 6.66 -1.04 7.32 1 8 C1 8.33 1 8.66 1 9 C-4.36095333 10.12862175 -9.55306686 10.09688221 -15 10 C-15.33 8.68 -15.66 7.36 -16 6 C-12.83825079 3.89216719 -10.54831926 3.282806 -6.875 2.4375 C-3.12980201 1.83335605 -3.12980201 1.83335605 0 0 Z " fill="#1A4F40" transform="translate(343,262)"/>
<path d="M0 0 C0.59425781 0.144375 1.18851562 0.28875 1.80078125 0.4375 C8.28732452 1.89016288 14.36613186 2.2270145 21 2 C20.6875 4.875 20.6875 4.875 20 8 C19.01 8.66 18.02 9.32 17 10 C16.67 8.68 16.34 7.36 16 6 C14.41058594 5.80083984 14.41058594 5.80083984 12.7890625 5.59765625 C11.40101721 5.41946125 10.01299769 5.2410654 8.625 5.0625 C7.92632812 4.97548828 7.22765625 4.88847656 6.5078125 4.79882812 C1.2265625 4.11328125 1.2265625 4.11328125 -1 3 C-0.67 2.01 -0.34 1.02 0 0 Z " fill="#C2A66B" transform="translate(322,220)"/>
<path d="M0 0 C1 4 1 4 2 8 C-0.97 7.505 -0.97 7.505 -4 7 C-4 7.66 -4 8.32 -4 9 C-5.32 9.33 -6.64 9.66 -8 10 C-8 10.66 -8 11.32 -8 12 C-8.66 12 -9.32 12 -10 12 C-10.33 13.32 -10.66 14.64 -11 16 C-11.66 16 -12.32 16 -13 16 C-13.33 17.32 -13.66 18.64 -14 20 C-14.33 19.34 -14.66 18.68 -15 18 C-14.505 16.515 -14.505 16.515 -14 15 C-13.34 14.67 -12.68 14.34 -12 14 C-11.34686542 12.75362528 -10.74987458 11.47737191 -10.1875 10.1875 C-7.80450418 5.21699753 -4.52007997 3.01338664 0 0 Z " fill="#BEA16B" transform="translate(299,150)"/>
<path d="M0 0 C2.4375 0.375 2.4375 0.375 5 1 C5.33 1.66 5.66 2.32 6 3 C8.01669827 4.13350534 8.01669827 4.13350534 10 5 C10 5.99 10 6.98 10 8 C9.34 8 8.68 8 8 8 C8 8.66 8 9.32 8 10 C4.48878203 9.7073985 3.19517334 9.1900372 0.625 6.6875 C-1 4 -1 4 -0.75 1.6875 C-0.5025 1.130625 -0.255 0.57375 0 0 Z " fill="#5FB75E" transform="translate(373,131)"/>
<path d="M0 0 C2 1.25 2 1.25 4 3 C4 4.32 4 5.64 4 7 C4.598125 7.226875 5.19625 7.45375 5.8125 7.6875 C8.58532489 9.35119494 9.43300136 11.20665459 11 14 C12.58245275 15.75149165 12.58245275 15.75149165 14 17 C12.35 16.67 10.7 16.34 9 16 C9 15.34 9 14.68 9 14 C8.05125 13.690625 7.1025 13.38125 6.125 13.0625 C3 12 3 12 1 11 C1.33 8.69 1.66 6.38 2 4 C1.34 4 0.68 4 0 4 C0 2.68 0 1.36 0 0 Z " fill="#224B5A" transform="translate(274,219)"/>
<path d="M0 0 C0.33 1.98 0.66 3.96 1 6 C-0.98 6.33 -2.96 6.66 -5 7 C-4.34 7.66 -3.68 8.32 -3 9 C-3 9.99 -3 10.98 -3 12 C-4.65 12 -6.3 12 -8 12 C-9 10 -9 10 -8.328125 7.87109375 C-7.97234375 7.06800781 -7.6165625 6.26492187 -7.25 5.4375 C-6.73179687 4.22900391 -6.73179687 4.22900391 -6.203125 2.99609375 C-4.59572911 0.32927783 -3.05177928 0 0 0 Z " fill="#FACB81" transform="translate(314,142)"/>
<path d="M0 0 C2.27997563 2.27997563 2.45210457 3.26052284 3.0703125 6.3515625 C3.24433594 7.20234375 3.41835938 8.053125 3.59765625 8.9296875 C3.77167969 9.81914062 3.94570313 10.70859375 4.125 11.625 C4.30675781 12.5221875 4.48851562 13.419375 4.67578125 14.34375 C5.1239946 16.5612266 5.5650924 18.77988214 6 21 C3.45061196 19.72530598 3.25420387 18.50840774 2 16 C1.47664063 15.59910156 0.95328125 15.19820312 0.4140625 14.78515625 C-1.78100557 12.0140344 -1.06038305 9.73624438 -0.6875 6.3125 C-0.56761719 5.13300781 -0.44773437 3.95351562 -0.32421875 2.73828125 C-0.16373047 1.38283203 -0.16373047 1.38283203 0 0 Z " fill="#23535F" transform="translate(267,195)"/>
<path d="M0 0 C19.59102902 -0.66410268 19.59102902 -0.66410268 26 5 C24.18706911 4.85962479 22.3746557 4.71255111 20.5625 4.5625 C19.04849609 4.44068359 19.04849609 4.44068359 17.50390625 4.31640625 C15 4 15 4 14 3 C11.66055264 3.28730055 9.3260857 3.61936779 7 4 C7 3.34 7 2.68 7 2 C4.69 1.67 2.38 1.34 0 1 C0 0.67 0 0.34 0 0 Z " fill="#4E8456" transform="translate(338,147)"/>
<path d="M0 0 C0.66 0.33 1.32 0.66 2 1 C1.2265625 2.175625 1.2265625 2.175625 0.4375 3.375 C-0.036875 4.24125 -0.51125 5.1075 -1 6 C-0.67 6.66 -0.34 7.32 0 8 C0.99 8.33 1.98 8.66 3 9 C-0.12706959 10.5635348 -3.57982443 10.39958487 -7 10 C-7.99 9.34 -8.98 8.68 -10 8 C-9.16855469 7.51080078 -9.16855469 7.51080078 -8.3203125 7.01171875 C-7.23363281 6.35623047 -7.23363281 6.35623047 -6.125 5.6875 C-5.40570313 5.25824219 -4.68640625 4.82898438 -3.9453125 4.38671875 C-1.73153667 2.98247625 -1.73153667 2.98247625 0 0 Z " fill="#1D5A45" transform="translate(346,260)"/>
<path d="M0 0 C-0.61538462 7.50769231 -0.61538462 7.50769231 -2.5625 10 C-3.2740625 10.495 -3.2740625 10.495 -4 11 C-4 9.35 -4 7.7 -4 6 C-5.32 6.33 -6.64 6.66 -8 7 C-6.76759083 3.3027725 -4.20634615 0 0 0 Z " fill="#336B79" transform="translate(279,143)"/>
<path d="M0 0 C0.33 0.99 0.66 1.98 1 3 C-1.64738916 4.4606285 -2.89448334 5 -6 5 C-6.66 6.65 -7.32 8.3 -8 10 C-9.32 10 -10.64 10 -12 10 C-12.0625 7.75 -12.0625 7.75 -11 5 C-8.13713032 3.30017113 -5.11140098 2.16463449 -2 1 C-1.34 0.67 -0.68 0.34 0 0 Z " fill="#BE9F6E" transform="translate(315,138)"/>
<path d="M0 0 C2.625 0.375 2.625 0.375 5 1 C5 3.31 5 5.62 5 8 C3.35 8.66 1.7 9.32 0 10 C0.50603992 7.83125748 0.99983813 6.00032373 2 4 C0.68 3.34 -0.64 2.68 -2 2 C-1.34 1.34 -0.68 0.68 0 0 Z " fill="#AF9B67" transform="translate(318,136)"/>
<path d="M0 0 C3.3 0.66 6.6 1.32 10 2 C9 5 9 5 6.9375 6.1875 C6.298125 6.455625 5.65875 6.72375 5 7 C3 5.66666667 1 4.33333333 -1 3 C-0.67 2.01 -0.34 1.02 0 0 Z " fill="#F6B65D" transform="translate(322,232)"/>
<path d="M0 0 C0.33 0 0.66 0 1 0 C1 3.96 1 7.92 1 12 C1.66 12 2.32 12 3 12 C3 12.66 3 13.32 3 14 C3.99 14 4.98 14 6 14 C6 15.98 6 17.96 6 20 C3.32509514 19.01920155 2.21349187 18.40919275 0.875 15.84375 C-0.15656175 12.4911743 -0.19573539 9.68890163 -0.125 6.1875 C-0.10695313 5.02605469 -0.08890625 3.86460937 -0.0703125 2.66796875 C-0.04710937 1.78753906 -0.02390625 0.90710938 0 0 Z " fill="#B99E67" transform="translate(282,192)"/>
<path d="M0 0 C2.105868 2.105868 2.92752247 3.7365229 4.125 6.4375 C4.47820312 7.21996094 4.83140625 8.00242188 5.1953125 8.80859375 C6 11 6 11 6 14 C5.34 14 4.68 14 4 14 C4 13.34 4 12.68 4 12 C3.01 11.67 2.02 11.34 1 11 C0.12132271 7.26562152 -0.08912219 3.83225427 0 0 Z " fill="#3F7F55" transform="translate(394,176)"/>
<path d="M0 0 C0.33 0.66 0.66 1.32 1 2 C3.64 1.67 6.28 1.34 9 1 C9 1.66 9 2.32 9 3 C4.37146715 5.31426642 -1.81262778 4.32755096 -6.625 3 C-7.40875 2.67 -8.1925 2.34 -9 2 C-9 1.67 -9 1.34 -9 1 C-5.94152152 0.45627049 -3.11227195 0 0 0 Z " fill="#C29B62" transform="translate(326,236)"/>
<path d="M0 0 C0.33 0 0.66 0 1 0 C1 1.98 1 3.96 1 6 C1.66 6 2.32 6 3 6 C4.17076699 9.98060777 5.25749403 13.91621717 6 18 C5.34 18.33 4.68 18.66 4 19 C-0.59225513 6.51480638 -0.59225513 6.51480638 0 0 Z " fill="#1C495A" transform="translate(254,203)"/>
<path d="M0 0 C0.33 0 0.66 0 1 0 C1 5.28 1 10.56 1 16 C1.99 16 2.98 16 4 16 C3.67 17.65 3.34 19.3 3 21 C2.01 20.67 1.02 20.34 0 20 C0 13.4 0 6.8 0 0 Z " fill="#172D25" transform="translate(393,211)"/>
<path d="M0 0 C1.65 0 3.3 0 5 0 C6.2380014 3.57644848 5.74926071 6.33694766 5 10 C2.08772731 6.71195019 0.50298788 4.40114397 0 0 Z " fill="#357852" transform="translate(383,187)"/>
<path d="M0 0 C1.27609323 0.90933009 2.54565553 1.82782853 3.8125 2.75 C4.87404297 3.51570312 4.87404297 3.51570312 5.95703125 4.296875 C8.02977691 6.02482358 9.47375854 7.78526476 11 10 C9.35 10 7.7 10 6 10 C5.67 9.01 5.34 8.02 5 7 C4.34 6.71125 3.68 6.4225 3 6.125 C1 5 1 5 0.25 2.375 C0.1675 1.59125 0.085 0.8075 0 0 Z " fill="#448657" transform="translate(377,129)"/>
<path d="M0 0 C1.32 0.33 2.64 0.66 4 1 C2.84414715 4.91211733 1.64465038 7.8745041 -1 11 C-1 10.01 -1 9.02 -1 8 C-1.99 7.67 -2.98 7.34 -4 7 C-4 6.34 -4 5.68 -4 5 C-2.68 5.33 -1.36 5.66 0 6 C0 4.02 0 2.04 0 0 Z " fill="#C2A36E" transform="translate(302,157)"/>
<path d="M0 0 C0.66 0.66 1.32 1.32 2 2 C-0.40545638 3.20272819 -1.94996953 3.10071472 -4.625 3.0625 C-5.85089844 3.04896484 -5.85089844 3.04896484 -7.1015625 3.03515625 C-8.04128906 3.01775391 -8.04128906 3.01775391 -9 3 C-9 3.66 -9 4.32 -9 5 C-9.66 5 -10.32 5 -11 5 C-10.1875 3.0625 -10.1875 3.0625 -9 1 C-5.75778445 -0.08073852 -3.39597063 -0.21676408 0 0 Z " fill="#174530" transform="translate(346,184)"/>
<path d="M0 0 C5.95345745 2.09175532 5.95345745 2.09175532 8 5 C8.1875 7.6875 8.1875 7.6875 8 10 C1.42857143 5 1.42857143 5 0 0 Z " fill="#1F4456" transform="translate(264,232)"/>
<path d="M0 0 C3.3 0.66 6.6 1.32 10 2 C9.01 2.495 9.01 2.495 8 3 C8 3.66 8 4.32 8 5 C3.545 4.01 3.545 4.01 -1 3 C-0.67 2.01 -0.34 1.02 0 0 Z " fill="#CCA963" transform="translate(322,220)"/>
<path d="M0 0 C0.66 0.33 1.32 0.66 2 1 C2.68939809 3.32671854 3.35466922 5.66067594 4 8 C4.99 9.485 4.99 9.485 6 11 C5.01 11 4.02 11 3 11 C3 10.34 3 9.68 3 9 C0.88214887 7.88214887 0.88214887 7.88214887 -2 7 C-1.125 2.25 -1.125 2.25 0 0 Z " fill="#F9CE81" transform="translate(299,199)"/>
<path d="M0 0 C1.65 0.33 3.3 0.66 5 1 C5 1.99 5 2.98 5 4 C2.03 3.505 2.03 3.505 -1 3 C-1 3.66 -1 4.32 -1 5 C-3.31 4.67 -5.62 4.34 -8 4 C-8 3.67 -8 3.34 -8 3 C-5.36 2.67 -2.72 2.34 0 2 C0 1.34 0 0.68 0 0 Z " fill="#4B954C" transform="translate(363,131)"/>
<path d="M0 0 C0.144375 0.639375 0.28875 1.27875 0.4375 1.9375 C0.81007181 3.97545146 0.81007181 3.97545146 2 5 C3.68183948 5.23287008 5.3712416 5.41264166 7.0625 5.5625 C7.98160156 5.64628906 8.90070313 5.73007813 9.84765625 5.81640625 C10.91306641 5.90728516 10.91306641 5.90728516 12 6 C12 6.33 12 6.66 12 7 C6.06 7.495 6.06 7.495 0 8 C-1 3 -1 3 0 0 Z " fill="#255037" transform="translate(330,160)"/>
<path d="M0 0 C2.97 0.99 5.94 1.98 9 3 C8 5 8 5 6.125 5.75 C4 6 4 6 1 4 C0.67 2.68 0.34 1.36 0 0 Z " fill="#EDC979" transform="translate(313,217)"/>
<path d="M0 0 C0.33 0 0.66 0 1 0 C0.67 2.97 0.34 5.94 0 9 C-0.66 9 -1.32 9 -2 9 C-2.33 9.66 -2.66 10.32 -3 11 C-3 8.03 -3 5.06 -3 2 C-2.01 2.495 -2.01 2.495 -1 3 C-0.67 2.01 -0.34 1.02 0 0 Z " fill="#328961" transform="translate(398,213)"/>
<path d="M0 0 C1.65 0 3.3 0 5 0 C4.01 2.31 3.02 4.62 2 7 C0.02 5.68 -1.96 4.36 -4 3 C-2.68 2.34 -1.36 1.68 0 1 C0 0.67 0 0.34 0 0 Z " fill="#3A774C" transform="translate(376,176)"/>
<path d="M0 0 C0.33 0 0.66 0 1 0 C0.59060025 6.76215448 -0.56953809 12.67162748 -3 19 C-3.33 19 -3.66 19 -4 19 C-3.59060025 12.23784552 -2.43046191 6.32837252 0 0 Z " fill="#1C4855" transform="translate(258,168)"/>
<path d="M0 0 C2.62424913 2.37432064 4.24205762 4.94270891 6 8 C6.99 9.485 6.99 9.485 8 11 C5.03 10.505 5.03 10.505 2 10 C2 9.01 2 8.02 2 7 C1.34 6.01 0.68 5.02 0 4 C0 2.68 0 1.36 0 0 Z " fill="#A9945F" transform="translate(301,201)"/>
<path d="M0 0 C1.45922693 0.11409593 2.91740598 0.24165544 4.375 0.375 C5.59316406 0.47941406 5.59316406 0.47941406 6.8359375 0.5859375 C9 1 9 1 11 3 C7.37 3 3.74 3 0 3 C0 2.01 0 1.02 0 0 Z " fill="#4F9666" transform="translate(342,164)"/>
<path d="M0 0 C0.33 0 0.66 0 1 0 C1.12375 0.7425 1.2475 1.485 1.375 2.25 C1.87755542 4.96572378 1.87755542 4.96572378 3.0625 7.125 C4 9 4 9 4 12 C2.68 11.34 1.36 10.68 0 10 C0 6.7 0 3.4 0 0 Z " fill="#DCBD7D" transform="translate(295,182)"/>
<path d="M0 0 C1.18414294 3.55242882 0.69535532 4.69830562 -0.4375 8.1875 C-0.72496094 9.08855469 -1.01242187 9.98960937 -1.30859375 10.91796875 C-1.53675781 11.60503906 -1.76492188 12.29210937 -2 13 C-2.33 13 -2.66 13 -3 13 C-3 9.7 -3 6.4 -3 3 C-2.01 2.67 -1.02 2.34 0 2 C0 1.34 0 0.68 0 0 Z " fill="#BBA975" transform="translate(300,169)"/>
<path d="M0 0 C0.86625 0.556875 0.86625 0.556875 1.75 1.125 C1.42 2.445 1.09 3.765 0.75 5.125 C-2.715 3.145 -2.715 3.145 -6.25 1.125 C-2.80384615 -1.09038462 -2.80384615 -1.09038462 0 0 Z " fill="#3B7955" transform="translate(370.25,172.875)"/>
<path d="M0 0 C1.5625 1.8125 1.5625 1.8125 3 4 C2.67 4.99 2.34 5.98 2 7 C0.125 6.75 0.125 6.75 -2 6 C-3.25 3.9375 -3.25 3.9375 -4 2 C-3.34 2 -2.68 2 -2 2 C-1.67 2.33 -1.34 2.66 -1 3 C-0.67 2.01 -0.34 1.02 0 0 Z " fill="#2D614A" transform="translate(398,153)"/>
<path d="M0 0 C4.24480464 -0.33292585 6.35542625 -0.43885872 9.9375 2 C10.618125 2.66 11.29875 3.32 12 4 C10.25 4.6875 10.25 4.6875 8 5 C6 3.6875 6 3.6875 4 2 C2.68163705 1.30419733 1.35208914 0.62775567 0 0 Z " fill="#C8A562" transform="translate(304,232)"/>
<path d="M0 0 C5.02470674 2.37277818 6.56030983 5.21097855 9 10 C8.01 10 7.02 10 6 10 C6 9.01 6 8.02 6 7 C5.01 6.67 4.02 6.34 3 6 C2.67 5.01 2.34 4.02 2 3 C1.34 2.67 0.68 2.34 0 2 C0 1.34 0 0.68 0 0 Z " fill="#1E4535" transform="translate(369,195)"/>
<path d="M0 0 C2.0625 1.75 2.0625 1.75 4 4 C3.75 6.25 3.75 6.25 3 8 C2.67 7.01 2.34 6.02 2 5 C1.34 5 0.68 5 0 5 C0 4.34 0 3.68 0 3 C-1.65 3 -3.3 3 -5 3 C-3 1 -3 1 0 0 Z " fill="#6EB76E" transform="translate(342,107)"/>
<path d="M0 0 C5.75 -0.125 5.75 -0.125 8 1 C7.67 1.99 7.34 2.98 7 4 C4.625 3.6875 4.625 3.6875 2 3 C1.34 2.01 0.68 1.02 0 0 Z " fill="#5E9B5C" transform="translate(346,116)"/>
<path d="M0 0 C-0.99 0.33 -1.98 0.66 -3 1 C-3.33 1.99 -3.66 2.98 -4 4 C-3.34 4.33 -2.68 4.66 -2 5 C-3.65 4.67 -5.3 4.34 -7 4 C-6.625 2.0625 -6.625 2.0625 -6 0 C-3.50907189 -1.24546405 -2.58919267 -0.7767578 0 0 Z " fill="#153731" transform="translate(334,267)"/>
<path d="M0 0 C1.57554035 2.88628401 2.46276373 5.53342384 3.125 8.75 C3.29257812 9.54921875 3.46015625 10.3484375 3.6328125 11.171875 C3.81457031 12.07679688 3.81457031 12.07679688 4 13 C1.33395417 11.66697708 1.00875212 10.81009519 0 8 C-0.16468671 5.30840157 -0.09005213 2.70156394 0 0 Z " fill="#193746" transform="translate(269,203)"/>
<path d="M0 0 C1.98 0.66 3.96 1.32 6 2 C6.33 3.65 6.66 5.3 7 7 C6.34 7 5.68 7 5 7 C5 6.34 5 5.68 5 5 C4.360625 4.731875 3.72125 4.46375 3.0625 4.1875 C1 3 1 3 0 0 Z " fill="#56AC74" transform="translate(391,150)"/>
<path d="M0 0 C6.4 -0.49230769 6.4 -0.49230769 9.4375 2 C10.2109375 2.99 10.2109375 2.99 11 4 C8.04725901 4 6.50941597 3.56108169 3.8125 2.5 C3.09707031 2.2215625 2.38164062 1.943125 1.64453125 1.65625 C1.10183594 1.4396875 0.55914062 1.223125 0 1 C0 0.67 0 0.34 0 0 Z " fill="#46784E" transform="translate(366,137)"/>
<path d="M0 0 C2.97 1.65 5.94 3.3 9 5 C9 5.33 9 5.66 9 6 C6.75 6.25 6.75 6.25 4 6 C1.6875 4.125 1.6875 4.125 0 2 C0 1.34 0 0.68 0 0 Z " fill="#1E3D49" transform="translate(294,241)"/>
<path d="M0 0 C6.75 -0.125 6.75 -0.125 9 1 C9 1.99 9 2.98 9 4 C7.35 3.67 5.7 3.34 4 3 C4 2.34 4 1.68 4 1 C2.68 0.67 1.36 0.34 0 0 Z " fill="#23523F" transform="translate(346,203)"/>
<path d="M0 0 C1.98 0.99 1.98 0.99 4 2 C4 4.64 4 7.28 4 10 C0 4 0 4 0 0 Z " fill="#205339" transform="translate(388,197)"/>
<path d="M0 0 C1.65 0 3.3 0 5 0 C4.67 1.65 4.34 3.3 4 5 C2.68 4.67 1.36 4.34 0 4 C0 2.68 0 1.36 0 0 Z " fill="#3F8396" transform="translate(266,155)"/>
<path d="M0 0 C0.66 0 1.32 0 2 0 C1.38461538 7.50769231 1.38461538 7.50769231 -0.5625 10 C-1.036875 10.33 -1.51125 10.66 -2 11 C-2 9.35 -2 7.7 -2 6 C-1.34 6 -0.68 6 0 6 C0 4.02 0 2.04 0 0 Z " fill="#204D54" transform="translate(277,143)"/>
<path d="M0 0 C0.33 0.99 0.66 1.98 1 3 C-0.1875 4.5 -0.1875 4.5 -2 6 C-4.6875 6.1875 -4.6875 6.1875 -7 6 C-6.21625 5.38125 -5.4325 4.7625 -4.625 4.125 C-2.03162353 2.10141339 -2.03162353 2.10141339 0 0 Z " fill="#1B4635" transform="translate(355,254)"/>
<path d="M0 0 C2.125 0.375 2.125 0.375 4 1 C2.625 3 2.625 3 1 5 C0.34 5 -0.32 5 -1 5 C-1.33 4.01 -1.66 3.02 -2 2 C-1.34 1.34 -0.68 0.68 0 0 Z " fill="#1C5138" transform="translate(371,251)"/>
<path d="M0 0 C0.66 0 1.32 0 2 0 C2 0.66 2 1.32 2 2 C3.32 2.66 4.64 3.32 6 4 C6 5.98 6 7.96 6 10 C3.8276509 6.74147635 1.92880342 3.40755272 0 0 Z " fill="#103828" transform="translate(360,211)"/>
<path d="M0 0 C2 1 2 1 3.125 3.375 C4 6 4 6 4 9 C3.34 9 2.68 9 2 9 C2 8.34 2 7.68 2 7 C1.34 7 0.68 7 0 7 C0 4.69 0 2.38 0 0 Z " fill="#284F38" transform="translate(396,181)"/>
<path d="M0 0 C0.33 0 0.66 0 1 0 C1.125 2.875 1.125 2.875 1 6 C0.34 6.66 -0.32 7.32 -1 8 C-1.99 6.35 -2.98 4.7 -4 3 C-3.01 2.67 -2.02 2.34 -1 2 C-0.67 1.34 -0.34 0.68 0 0 Z " fill="#2D6C44" transform="translate(382,180)"/>
<path d="M0 0 C2 2 2 2 2.125 4.625 C2.08375 5.40875 2.0425 6.1925 2 7 C1.01 7 0.02 7 -1 7 C-0.67 4.69 -0.34 2.38 0 0 Z " fill="#337D8D" transform="translate(265,166)"/>
<path d="M0 0 C2.97 0.99 5.94 1.98 9 3 C9 3.33 9 3.66 9 4 C3.375 4.25 3.375 4.25 0 2 C0 1.34 0 0.68 0 0 Z " fill="#305B3B" transform="translate(355,148)"/>
<path d="M0 0 C0.66 1.32 1.32 2.64 2 4 C0.625 5.5 0.625 5.5 -1 7 C-1.66 7 -2.32 7 -3 7 C-1.125 1.125 -1.125 1.125 0 0 Z " fill="#417349" transform="translate(337,148)"/>
<path d="M0 0 C5.75 1.625 5.75 1.625 8 5 C6.68 5 5.36 5 4 5 C4 4.01 4 3.02 4 2 C3.67 2.66 3.34 3.32 3 4 C2.34 4 1.68 4 1 4 C0.67 2.68 0.34 1.36 0 0 Z " fill="#437345" transform="translate(368,124)"/>
<path d="M0 0 C4.875 1.75 4.875 1.75 6 4 C5.01 4.99 4.02 5.98 3 7 C2.01 4.69 1.02 2.38 0 0 Z " fill="#BE9F60" transform="translate(287,213)"/>
<path d="M0 0 C0 2.66666667 0 5.33333333 0 8 C-1.5 6.75 -1.5 6.75 -3 5 C-3 3.68 -3 2.36 -3 1 C-2.01 0.67 -1.02 0.34 0 0 Z " fill="#337555" transform="translate(395,205)"/>
<path d="M0 0 C0.33 0 0.66 0 1 0 C1.36923077 5.53846154 1.36923077 5.53846154 -0.5 7.875 C-1.2425 8.431875 -1.2425 8.431875 -2 9 C-1.125 1.125 -1.125 1.125 0 0 Z " fill="#397384" transform="translate(257,178)"/>
<path d="M0 0 C1.32 1.32 2.64 2.64 4 4 C3.67 4.66 3.34 5.32 3 6 C1.68 5.67 0.36 5.34 -1 5 C-0.67 3.35 -0.34 1.7 0 0 Z " fill="#68B065" transform="translate(338,101)"/>
</svg>
